<svg xmlns="http://www.w3.org/2000/svg" xmlns:xlink="http://www.w3.org/1999/xlink" width="500" zoomAndPan="magnify" viewBox="0 0 375 374.999991" height="500" preserveAspectRatio="xMidYMid meet" version="1.0"><defs><g/></defs><path fill="#00adb5" d="M 198.835938 44.9375 L 207.425781 36.351562 C 224.300781 19.484375 251.777344 19.070312 268.75 35.835938 C 282.292969 49.21875 285.113281 69.371094 277.199219 85.574219 C 273.308594 93.542969 274.882812 103.101562 281.160156 109.375 C 304.8125 85.734375 304.773438 47.253906 281.039062 23.667969 C 257.304688 0.0820312 218.78125 0.550781 195.113281 24.203125 L 113.207031 106.070312 L 106.46875 99.339844 C 89.304688 82.183594 89.195312 54.148438 106.664062 37.300781 C 120.191406 24.253906 140.1875 21.761719 156.191406 29.824219 C 163.730469 33.621094 172.835938 32.289062 178.804688 26.320312 L 179.011719 26.113281 C 179.285156 25.839844 179.285156 25.398438 179.007812 25.125 C 155.621094 2.28125 118.148438 2.1875 94.652344 24.863281 C 70.214844 48.4375 70.300781 87.644531 94.320312 111.648438 L 176.210938 193.496094 L 167.511719 202.191406 C 150.636719 219.054688 123.160156 219.472656 106.1875 202.707031 C 92.644531 189.324219 89.824219 169.167969 97.738281 152.972656 C 101.632812 145 100.054688 135.441406 93.777344 129.171875 C 70.121094 152.796875 70.164062 191.28125 93.890625 214.867188 C 117.625 238.457031 156.148438 237.984375 179.816406 214.332031 L 261.835938 132.355469 L 268.59375 139.109375 C 285.46875 155.976562 285.886719 183.4375 269.109375 200.398438 C 255.722656 213.933594 235.554688 216.753906 219.34375 208.84375 C 211.371094 204.953125 201.804688 206.527344 195.53125 212.804688 C 219.183594 236.441406 257.6875 236.402344 281.285156 212.679688 C 304.886719 188.960938 304.414062 150.457031 280.75 126.804688 Z M 188.4375 181.261719 L 125.4375 118.296875 L 186.605469 57.164062 L 249.605469 120.132812 Z M 188.4375 181.261719 " fill-opacity="1" fill-rule="nonzero"/><g fill="#00adb5" fill-opacity="1"><g transform="translate(5.129006, 355.366408)"><g><path d="M 32.269531 1.441406 C 47.941406 1.441406 57.511719 -6.523438 57.511719 -19.226562 C 57.511719 -34.21875 43.957031 -37.269531 33.03125 -39.722656 C 25.664062 -41.417969 19.394531 -42.859375 19.394531 -47.515625 C 19.394531 -51.582031 23.632812 -53.277344 27.949219 -53.277344 C 34.304688 -53.277344 38.707031 -49.972656 40.230469 -44.46875 L 55.902344 -44.46875 C 53.867188 -58.867188 41.839844 -65.980469 28.289062 -65.980469 C 15.078125 -65.980469 4.320312 -59.628906 4.320312 -46.246094 C 4.320312 -32.015625 17.277344 -29.136719 28.121094 -26.679688 C 35.742188 -24.984375 42.265625 -23.546875 42.265625 -18.464844 C 42.265625 -13.382812 37.351562 -11.265625 32.1875 -11.265625 C 26.339844 -11.265625 20.496094 -13.46875 18.296875 -21.9375 L 2.625 -21.9375 C 3.8125 -3.8125 20.074219 1.441406 32.269531 1.441406 Z M 32.269531 1.441406 "/></g></g></g><g fill="#00adb5" fill-opacity="1"><g transform="translate(65.434119, 355.366408)"><g><path d="M 27.949219 1.015625 C 43.195312 1.015625 53.191406 -9.0625 53.191406 -24.308594 C 53.191406 -38.960938 43.027344 -49.039062 27.949219 -49.039062 C 12.875 -49.039062 2.710938 -39.046875 2.710938 -24.308594 C 2.710938 -8.976562 12.960938 1.015625 27.949219 1.015625 Z M 27.949219 -11.179688 C 21.597656 -11.179688 17.363281 -16.261719 17.363281 -24.308594 C 17.363281 -31.847656 21.597656 -36.929688 27.949219 -36.929688 C 34.386719 -36.929688 38.367188 -31.761719 38.367188 -24.308594 C 38.367188 -16.433594 34.386719 -11.179688 27.949219 -11.179688 Z M 27.949219 -11.179688 "/></g></g></g><g fill="#00adb5" fill-opacity="1"><g transform="translate(121.33493, 355.366408)"><g><path d="M 24.984375 0 L 24.984375 -11.519531 L 21.429688 -11.519531 C 20.328125 -11.519531 18.632812 -11.859375 18.632812 -14.484375 L 18.632812 -64.625 L 4.40625 -64.625 L 4.40625 -9.570312 C 4.40625 -3.472656 8.386719 0 15.414062 0 Z M 24.984375 0 "/></g></g></g><g fill="#00adb5" fill-opacity="1"><g transform="translate(148.268953, 355.366408)"><g><path d="M 11.773438 -51.328125 C 16.175781 -51.328125 19.820312 -54.039062 19.820312 -58.613281 C 19.820312 -63.101562 16.175781 -65.980469 11.773438 -65.980469 C 7.367188 -65.980469 3.726562 -63.101562 3.726562 -58.613281 C 3.726562 -54.039062 7.367188 -51.328125 11.773438 -51.328125 Z M 18.886719 0 L 18.886719 -48.023438 L 4.660156 -48.023438 L 4.660156 0 Z M 18.886719 0 "/></g></g></g><g fill="#00adb5" fill-opacity="1"><g transform="translate(171.815056, 355.366408)"><g><path d="M 23.800781 1.015625 C 28.882812 1.015625 32.863281 -0.339844 36.082031 -5.167969 L 36.082031 0 L 50.3125 0 L 50.3125 -64.625 L 36.082031 -64.625 L 36.082031 -42.859375 C 32.863281 -47.6875 28.882812 -49.039062 23.800781 -49.039062 C 11.519531 -49.039062 2.878906 -38.707031 2.878906 -24.054688 C 2.878906 -9.316406 11.519531 1.015625 23.800781 1.015625 Z M 27.78125 -11.09375 C 21.429688 -11.09375 17.277344 -16.433594 17.277344 -24.054688 C 17.277344 -31.59375 21.429688 -36.929688 27.78125 -36.929688 C 34.050781 -36.929688 38.285156 -31.761719 38.285156 -24.054688 C 38.285156 -16.261719 34.050781 -11.09375 27.78125 -11.09375 Z M 27.78125 -11.09375 "/></g></g></g><g fill="#ffffff" fill-opacity="1"><g transform="translate(226.780538, 355.366408)"><g><path d="M 18.550781 1.015625 C 22.53125 1.015625 26.339844 0.421875 29.136719 -1.523438 C 30.660156 -2.539062 31.761719 -3.980469 32.523438 -5.84375 L 32.523438 0 L 46.753906 0 L 46.753906 -22.785156 C 46.753906 -31.675781 46.753906 -39.214844 40.824219 -44.296875 C 37.011719 -47.601562 31.507812 -49.039062 25.917969 -49.039062 C 16.261719 -49.039062 6.351562 -44.042969 4.574219 -32.015625 L 18.71875 -32.015625 C 19.394531 -36.082031 22.53125 -38.367188 25.832031 -38.367188 C 27.949219 -38.367188 29.558594 -37.859375 30.660156 -36.675781 C 31.761719 -35.402344 32.441406 -33.539062 32.609375 -31.085938 L 20.160156 -28.882812 C 16.515625 -28.203125 12.195312 -27.273438 8.808594 -25.070312 C 5.335938 -22.785156 2.796875 -19.226562 2.796875 -13.46875 C 2.796875 -3.8125 9.910156 1.015625 18.550781 1.015625 Z M 22.699219 -9.742188 C 19.648438 -9.742188 17.023438 -10.925781 17.023438 -13.976562 C 17.023438 -15.332031 17.53125 -16.261719 18.296875 -17.023438 C 19.480469 -18.125 21.003906 -18.71875 24.140625 -19.3125 L 32.863281 -21.003906 C 32.695312 -15.753906 31.761719 -12.703125 27.867188 -10.925781 C 26.171875 -10.164062 24.308594 -9.742188 22.699219 -9.742188 Z M 22.699219 -9.742188 "/></g></g></g><g fill="#ffffff" fill-opacity="1"><g transform="translate(277.684156, 355.366408)"><g><path d="M 18.886719 0 L 18.886719 -20.242188 C 18.886719 -26.765625 19.988281 -30.578125 22.445312 -32.949219 C 24.140625 -34.558594 26.59375 -35.488281 30.578125 -35.488281 L 33.285156 -35.488281 L 33.285156 -49.039062 L 31.167969 -49.039062 C 26.085938 -49.039062 22.105469 -47.6875 18.886719 -42.859375 L 18.886719 -48.023438 L 4.660156 -48.023438 L 4.660156 0 Z M 18.886719 0 "/></g></g></g><g fill="#ffffff" fill-opacity="1"><g transform="translate(312.410414, 355.366408)"><g><path d="M 11.773438 -51.328125 C 16.175781 -51.328125 19.820312 -54.039062 19.820312 -58.613281 C 19.820312 -63.101562 16.175781 -65.980469 11.773438 -65.980469 C 7.367188 -65.980469 3.726562 -63.101562 3.726562 -58.613281 C 3.726562 -54.039062 7.367188 -51.328125 11.773438 -51.328125 Z M 18.886719 0 L 18.886719 -48.023438 L 4.660156 -48.023438 L 4.660156 0 Z M 18.886719 0 "/></g></g></g><g fill="#ffffff" fill-opacity="1"><g transform="translate(335.956518, 355.366408)"><g><path d="M 30.832031 0 L 30.832031 -11.519531 L 25.496094 -11.519531 C 23.039062 -11.519531 22.613281 -13.042969 22.613281 -14.398438 L 22.613281 -36.929688 L 30.914062 -36.929688 L 30.914062 -48.023438 L 22.613281 -48.023438 L 22.613281 -64.625 L 8.386719 -64.625 L 8.386719 -48.023438 L 1.777344 -48.023438 L 1.777344 -36.929688 L 8.386719 -36.929688 L 8.386719 -9.570312 C 8.386719 -3.472656 12.449219 0 19.480469 0 Z M 30.832031 0 "/></g></g></g></svg>