<svg xmlns="http://www.w3.org/2000/svg" xmlns:xlink="http://www.w3.org/1999/xlink" width="500" zoomAndPan="magnify" viewBox="0 0 375 374.999991" height="500" preserveAspectRatio="xMidYMid meet" version="1.0"><defs><g/><clipPath id="708442dc3e"><path d="M 0.210938 139 L 93 139 L 93 240.480469 L 0.210938 240.480469 Z M 0.210938 139 " clip-rule="nonzero"/></clipPath></defs><path fill="#00adb5" d="M 63.222656 177.097656 C 65.011719 178.878906 67.898438 178.867188 69.667969 177.070312 C 71.441406 175.273438 71.425781 172.375 69.636719 170.59375 C 58.9375 159.949219 41.613281 160.027344 31.011719 170.773438 C 20.410156 181.519531 20.492188 198.917969 31.1875 209.566406 C 36.539062 214.890625 43.542969 217.53125 50.539062 217.5 C 57.53125 217.46875 64.515625 214.761719 69.816406 209.390625 C 71.589844 207.59375 71.574219 204.695312 69.785156 202.914062 C 68 201.136719 65.113281 201.148438 63.339844 202.945312 C 56.277344 210.101562 44.734375 210.152344 37.609375 203.0625 C 30.480469 195.96875 30.429688 184.375 37.492188 177.214844 C 44.550781 170.0625 56.09375 170.007812 63.222656 177.097656 Z M 63.222656 177.097656 " fill-opacity="1" fill-rule="nonzero"/><g clip-path="url(#708442dc3e)"><path fill="#00adb5" d="M 92.636719 209.3125 C 92.609375 203.195312 90.210938 197.457031 85.886719 193.152344 C 84.101562 191.378906 84.089844 188.472656 85.859375 186.679688 C 94.703125 177.714844 94.636719 163.191406 85.707031 154.308594 C 66.070312 134.761719 34.253906 134.90625 14.792969 154.632812 C 5.367188 164.191406 0.207031 176.859375 0.269531 190.3125 C 0.328125 203.765625 5.601562 216.386719 15.117188 225.855469 C 24.9375 235.628906 37.800781 240.480469 50.640625 240.417969 C 63.484375 240.359375 76.300781 235.394531 86.03125 225.53125 C 90.320312 221.1875 92.664062 215.425781 92.636719 209.3125 Z M 79.558594 219.085938 C 63.636719 235.222656 37.605469 235.34375 21.535156 219.351562 C 13.75 211.605469 9.4375 201.277344 9.386719 190.269531 C 9.335938 179.261719 13.554688 168.898438 21.269531 161.078125 C 37.191406 144.9375 63.222656 144.820312 79.292969 160.808594 C 84.648438 166.140625 84.6875 174.855469 79.378906 180.234375 C 74.074219 185.613281 74.113281 194.324219 79.46875 199.65625 C 82.0625 202.242188 83.5 205.683594 83.515625 209.351562 C 83.535156 213.023438 82.128906 216.476562 79.558594 219.085938 " fill-opacity="1" fill-rule="nonzero"/></g><path fill="#00adb5" d="M 49.75 197.519531 C 49.265625 197.519531 48.78125 197.472656 48.304688 197.375 C 47.828125 197.28125 47.367188 197.140625 46.917969 196.953125 C 46.46875 196.765625 46.039062 196.535156 45.636719 196.265625 C 45.230469 195.996094 44.859375 195.6875 44.515625 195.339844 C 44.171875 194.996094 43.863281 194.621094 43.59375 194.214844 C 43.324219 193.808594 43.09375 193.378906 42.910156 192.925781 C 42.722656 192.476562 42.582031 192.011719 42.488281 191.53125 C 42.390625 191.050781 42.34375 190.570312 42.34375 190.082031 C 42.34375 189.59375 42.390625 189.109375 42.488281 188.628906 C 42.582031 188.148438 42.722656 187.683594 42.910156 187.234375 C 43.09375 186.78125 43.324219 186.355469 43.59375 185.949219 C 43.863281 185.542969 44.171875 185.164062 44.515625 184.820312 C 44.859375 184.476562 45.230469 184.167969 45.636719 183.894531 C 46.039062 183.625 46.46875 183.394531 46.917969 183.207031 C 47.367188 183.019531 47.828125 182.878906 48.304688 182.785156 C 48.78125 182.6875 49.265625 182.640625 49.75 182.640625 C 50.238281 182.640625 50.71875 182.6875 51.195312 182.785156 C 51.671875 182.878906 52.136719 183.019531 52.585938 183.207031 C 53.035156 183.394531 53.460938 183.625 53.867188 183.894531 C 54.269531 184.167969 54.644531 184.476562 54.988281 184.820312 C 55.332031 185.164062 55.640625 185.542969 55.910156 185.949219 C 56.179688 186.355469 56.40625 186.78125 56.59375 187.234375 C 56.78125 187.683594 56.921875 188.148438 57.015625 188.628906 C 57.109375 189.109375 57.15625 189.59375 57.15625 190.082031 C 57.15625 190.570312 57.109375 191.050781 57.015625 191.53125 C 56.921875 192.011719 56.78125 192.476562 56.59375 192.925781 C 56.40625 193.378906 56.179688 193.808594 55.910156 194.214844 C 55.640625 194.621094 55.332031 194.996094 54.988281 195.339844 C 54.644531 195.6875 54.269531 195.996094 53.867188 196.265625 C 53.460938 196.535156 53.035156 196.765625 52.585938 196.953125 C 52.136719 197.140625 51.671875 197.28125 51.195312 197.375 C 50.71875 197.472656 50.238281 197.519531 49.75 197.519531 Z M 49.75 197.519531 " fill-opacity="1" fill-rule="nonzero"/><g fill="#ebebeb" fill-opacity="1"><g transform="translate(117.021297, 210.317926)"><g><path d="M 37.78125 0 L 37.78125 -11.300781 L 16.398438 -11.300781 L 16.398438 -16.28125 L 35.867188 -16.28125 L 35.867188 -26.367188 L 16.398438 -26.367188 L 16.398438 -31.058594 L 37.144531 -31.058594 L 37.144531 -42.300781 L 2.722656 -42.300781 L 2.722656 0 Z M 37.78125 0 "/></g></g></g><g fill="#ebebeb" fill-opacity="1"><g transform="translate(156.133907, 210.317926)"><g><path d="M 1.101562 -14.601562 C 1.101562 -5.390625 7.476562 0.984375 19.355469 0.984375 C 30.480469 0.984375 36.390625 -4.578125 37.027344 -13.152344 L 23.003906 -13.152344 C 22.597656 -10.894531 21.382812 -9.851562 19.179688 -9.851562 C 16.628906 -9.851562 15.007812 -11.472656 15.007812 -15.355469 C 15.007812 -19.238281 16.628906 -20.859375 19.179688 -20.859375 C 21.382812 -20.859375 22.597656 -19.816406 22.945312 -17.558594 L 36.96875 -17.558594 C 36.332031 -26.132812 30.421875 -31.695312 19.355469 -31.695312 C 7.476562 -31.695312 1.101562 -25.324219 1.101562 -16.109375 Z M 1.101562 -14.601562 "/></g></g></g><g fill="#ebebeb" fill-opacity="1"><g transform="translate(194.145574, 210.317926)"><g><path d="M 19.296875 0.984375 C 31.058594 0.984375 37.433594 -5.390625 37.433594 -14.601562 L 37.433594 -16.109375 C 37.433594 -25.324219 31.058594 -31.695312 19.296875 -31.695312 C 7.476562 -31.695312 1.101562 -25.324219 1.101562 -16.109375 L 1.101562 -14.601562 C 1.101562 -5.390625 7.476562 0.984375 19.296875 0.984375 Z M 19.296875 -9.851562 C 16.628906 -9.851562 15.007812 -11.414062 15.007812 -15.414062 C 15.007812 -19.296875 16.628906 -20.859375 19.296875 -20.859375 C 21.902344 -20.859375 23.527344 -19.296875 23.527344 -15.414062 C 23.527344 -11.414062 21.902344 -9.851562 19.296875 -9.851562 Z M 19.296875 -9.851562 "/></g></g></g><g fill="#ebebeb" fill-opacity="1"><g transform="translate(232.67874, 210.317926)"><g><path d="M 0.578125 -10.488281 C 1.21875 -3.824219 5.910156 0.984375 18.601562 0.984375 C 31.117188 0.984375 36.042969 -3.941406 36.042969 -8.921875 C 36.042969 -14.140625 32.625 -17.789062 20.976562 -18.71875 C 15.125 -19.355469 14.3125 -20.109375 14.3125 -21.035156 C 14.3125 -21.789062 15.125 -22.65625 17.847656 -22.65625 C 20.6875 -22.65625 21.613281 -21.730469 21.847656 -20.339844 L 35.40625 -20.339844 C 34.769531 -26.714844 29.957031 -31.695312 17.730469 -31.695312 C 5.679688 -31.695312 0.984375 -27.003906 0.984375 -21.847656 C 0.984375 -16.515625 4.347656 -13.039062 16.050781 -12.054688 C 21.730469 -11.472656 22.542969 -10.605469 22.542969 -9.734375 C 22.542969 -8.980469 21.671875 -8.113281 18.660156 -8.113281 C 15.644531 -8.113281 14.601562 -9.097656 14.3125 -10.488281 Z M 0.578125 -10.488281 "/></g></g></g><g fill="#ebebeb" fill-opacity="1"><g transform="translate(269.531501, 210.317926)"><g><path d="M 18.136719 -13.152344 L 13.675781 -30.710938 L -1.042969 -30.710938 L 9.503906 -1.21875 C 8.75 0.871094 7.765625 1.566406 5.390625 1.566406 C 4.347656 1.566406 2.839844 1.449219 1.566406 1.273438 L 1.566406 11.648438 C 3.1875 12.054688 6.027344 12.515625 9.328125 12.515625 C 19.238281 12.515625 23.933594 8.054688 27.582031 -3.359375 L 36.507812 -30.710938 L 22.484375 -30.710938 Z M 18.136719 -13.152344 "/></g></g></g><g fill="#ebebeb" fill-opacity="1"><g transform="translate(304.993604, 210.317926)"><g><path d="M 0.578125 -10.488281 C 1.21875 -3.824219 5.910156 0.984375 18.601562 0.984375 C 31.117188 0.984375 36.042969 -3.941406 36.042969 -8.921875 C 36.042969 -14.140625 32.625 -17.789062 20.976562 -18.71875 C 15.125 -19.355469 14.3125 -20.109375 14.3125 -21.035156 C 14.3125 -21.789062 15.125 -22.65625 17.847656 -22.65625 C 20.6875 -22.65625 21.613281 -21.730469 21.847656 -20.339844 L 35.40625 -20.339844 C 34.769531 -26.714844 29.957031 -31.695312 17.730469 -31.695312 C 5.679688 -31.695312 0.984375 -27.003906 0.984375 -21.847656 C 0.984375 -16.515625 4.347656 -13.039062 16.050781 -12.054688 C 21.730469 -11.472656 22.542969 -10.605469 22.542969 -9.734375 C 22.542969 -8.980469 21.671875 -8.113281 18.660156 -8.113281 C 15.644531 -8.113281 14.601562 -9.097656 14.3125 -10.488281 Z M 0.578125 -10.488281 "/></g></g></g><g fill="#ebebeb" fill-opacity="1"><g transform="translate(341.846365, 210.317926)"><g><path d="M 31.292969 -30.710938 L 20.570312 -30.710938 L 20.570312 -39.808594 L 12.054688 -39.808594 L 7.417969 -30.710938 L 0.753906 -30.710938 L 0.753906 -19.644531 L 6.953125 -19.644531 L 6.953125 -12.804688 C 6.953125 -3.359375 11.242188 0.984375 22.136719 0.984375 C 26.191406 0.984375 29.667969 0.40625 31.347656 0 L 31.347656 -10.894531 C 29.902344 -10.605469 27.871094 -10.257812 25.378906 -10.257812 C 21.324219 -10.257812 20.570312 -11.011719 20.570312 -14.835938 L 20.570312 -19.644531 L 31.292969 -19.644531 Z M 31.292969 -30.710938 "/></g></g></g></svg>